<?xml version='1.0' encoding='UTF-8' standalone='no'?>
<!-- Created with Fritzing (http://www.fritzing.org/) -->
<svg xmlns:svg='http://www.w3.org/2000/svg' xmlns='http://www.w3.org/2000/svg' version='1.2' baseProfile='tiny' x='0in' y='0in' width='4.14764in' height='2.44736in' viewBox='0 0 298.63 176.21' >
<g partID='122610'><g transform='translate(133.3,5.6)' ><g id="schematic" xmlns="http://www.w3.org/2000/svg">
<line y2="0.36" stroke-width="0.720003" x1="11.15" xmlns="http://www.w3.org/2000/svg" stroke="#000000" y1="3.96" class="other" x2="18.3501" stroke-linecap="round"/>
<line y2="3.96" stroke-width="0.432002" x1="18.3501" xmlns="http://www.w3.org/2000/svg" stroke="#000000" y1="3.96" class="other" x2="21.9501" stroke-linecap="round"/>
<line y2="3.96" stroke-width="0.432002" x1="7.55002" xmlns="http://www.w3.org/2000/svg" stroke="#000000" y1="3.96" class="other" x2="10.142" stroke-linecap="round"/>
<circle fill="none" stroke-width="0.576002" cx="18.3501" cy="3.96" xmlns="http://www.w3.org/2000/svg" stroke="#000000" class="other" r="1.01821"/>
<circle fill="none" stroke-width="0.576002" cx="11.15" cy="3.96" xmlns="http://www.w3.org/2000/svg" stroke="#000000" class="other" r="1.01821"/>
<line y2="3.96" stroke-width="0.700001" x1="0.350001" id="connector3pin" xmlns="http://www.w3.org/2000/svg" stroke="#787878" y1="3.96" class="pin" connectorname="P" x2="7.55002" stroke-linecap="round"/>
<g fill="none" stroke-width="0" width="0.000283466" height="0.000283464" id="connector3terminal" x="0.350001" xmlns="http://www.w3.org/2000/svg" stroke="none" y="3.96" class="terminal"/>
<text fill="#8c8c8c" text-anchor="middle" stroke-width="0" x="3.95001" xmlns="http://www.w3.org/2000/svg" stroke="none" font-size="2.50001" font-family="'Droid Sans'" y="2.90999" class="text">4</text>
<line y2="3.96" stroke-width="0.700001" x1="29.1502" id="connector2pin" xmlns="http://www.w3.org/2000/svg" stroke="#787878" y1="3.96" class="pin" connectorname="O" x2="21.9501" stroke-linecap="round"/>
<g fill="none" stroke-width="0" width="0.000283466" height="0.000283464" id="connector2terminal" x="29.1502" xmlns="http://www.w3.org/2000/svg" stroke="none" y="3.96" class="terminal"/>
<text fill="#8c8c8c" text-anchor="middle" stroke-width="0" x="25.5501" xmlns="http://www.w3.org/2000/svg" stroke="none" font-size="2.50001" font-family="'Droid Sans'" y="2.90999" class="text">3</text>
</g>
</g></g><g partID='122400'><g transform='translate(18.1,5.6)' ><g id="schematic" xmlns="http://www.w3.org/2000/svg">
<line y2="0.36" stroke-width="0.720003" x1="11.15" xmlns="http://www.w3.org/2000/svg" stroke="#000000" y1="3.96" class="other" x2="18.3501" stroke-linecap="round"/>
<line y2="3.96" stroke-width="0.432002" x1="18.3501" xmlns="http://www.w3.org/2000/svg" stroke="#000000" y1="3.96" class="other" x2="21.9501" stroke-linecap="round"/>
<line y2="3.96" stroke-width="0.432002" x1="7.55002" xmlns="http://www.w3.org/2000/svg" stroke="#000000" y1="3.96" class="other" x2="10.142" stroke-linecap="round"/>
<circle fill="none" stroke-width="0.576002" cx="18.3501" cy="3.96" xmlns="http://www.w3.org/2000/svg" stroke="#000000" class="other" r="1.01821"/>
<circle fill="none" stroke-width="0.576002" cx="11.15" cy="3.96" xmlns="http://www.w3.org/2000/svg" stroke="#000000" class="other" r="1.01821"/>
<line y2="3.96" stroke-width="0.700001" x1="0.350001" id="connector3pin" xmlns="http://www.w3.org/2000/svg" stroke="#787878" y1="3.96" class="pin" connectorname="P" x2="7.55002" stroke-linecap="round"/>
<g fill="none" stroke-width="0" width="0.000283466" height="0.000283464" id="connector3terminal" x="0.350001" xmlns="http://www.w3.org/2000/svg" stroke="none" y="3.96" class="terminal"/>
<text fill="#8c8c8c" text-anchor="middle" stroke-width="0" x="3.95001" xmlns="http://www.w3.org/2000/svg" stroke="none" font-size="2.50001" font-family="'Droid Sans'" y="2.90999" class="text">4</text>
<line y2="3.96" stroke-width="0.700001" x1="29.1502" id="connector2pin" xmlns="http://www.w3.org/2000/svg" stroke="#787878" y1="3.96" class="pin" connectorname="O" x2="21.9501" stroke-linecap="round"/>
<g fill="none" stroke-width="0" width="0.000283466" height="0.000283464" id="connector2terminal" x="29.1502" xmlns="http://www.w3.org/2000/svg" stroke="none" y="3.96" class="terminal"/>
<text fill="#8c8c8c" text-anchor="middle" stroke-width="0" x="25.5501" xmlns="http://www.w3.org/2000/svg" stroke="none" font-size="2.50001" font-family="'Droid Sans'" y="2.90999" class="text">3</text>
</g>
</g></g><g partID='111760'><g transform='translate(54.4504,16.76)' ><g id="schematic">
<rect fill="#FFFFFF" stroke-width="0.9" width="56.7" height="128.7" x="14.85" stroke="#000000" y="14.85" class="interior rect" stroke-linecap="round"/>
<line y2="28.8" fill="none" stroke-width="0" x1="71.6499" id="connector45pin" stroke="none" y1="28.8" class="pin" x2="86.0499" stroke-linecap="round"/>
<g fill="none" stroke-width="0" width="0.699999" height="0.699999" x="86.0499" id="connector45terminal" stroke="none" y="28.4499" class="terminal"/>
<line y2="28.8" fill="none" stroke-width="0.699999" x1="71.6499" id="connector57pin" stroke="#787878" y1="28.8" class="pin" x2="86.0499" stroke-linecap="round"/>
<text fill="#8c8c8c" text-anchor="end" stroke-width="0" x="70.2499" stroke="none" font-size="3.49999" font-family="'Droid Sans'" y="29.4999" class="text">D13/SCK</text>
<rect fill="none" stroke-width="0" width="0.699999" height="0.699999" x="86.0499" id="connector57terminal" stroke="none" y="28.4499" class="terminal"/>
<line y2="36" fill="none" stroke-width="0" x1="71.6499" id="connector30pin" stroke="none" y1="36" class="pin" x2="86.0499" stroke-linecap="round"/>
<g fill="none" stroke-width="0" width="0.699999" height="0.699999" x="86.0499" id="connector30terminal" stroke="none" y="35.6499" class="terminal"/>
<line y2="36" fill="none" stroke-width="0.699999" x1="71.6499" id="connector55pin" stroke="#787878" y1="36" class="pin" x2="86.0499" stroke-linecap="round"/>
<text fill="#8c8c8c" text-anchor="end" stroke-width="0" x="70.2499" stroke="none" font-size="3.49999" font-family="'Droid Sans'" y="36.6999" class="text">D12/MISO</text>
<rect fill="none" stroke-width="0" width="0.699999" height="0.699999" x="86.0499" id="connector55terminal" stroke="none" y="35.6499" class="terminal"/>
<line y2="43.2" fill="none" stroke-width="0" x1="71.6499" id="connector29pin" stroke="none" y1="43.2" class="pin" x2="86.0499" stroke-linecap="round"/>
<g fill="none" stroke-width="0" width="0.699999" height="0.699999" x="86.0499" id="connector29terminal" stroke="none" y="42.8499" class="terminal"/>
<line y2="43.2" fill="none" stroke-width="0.699999" x1="71.6499" id="connector58pin" stroke="#787878" y1="43.2" class="pin" x2="86.0499" stroke-linecap="round"/>
<text fill="#8c8c8c" text-anchor="end" stroke-width="0" x="70.2499" stroke="none" font-size="3.49999" font-family="'Droid Sans'" y="43.8999" class="text">D11/MOSI</text>
<rect fill="none" stroke-width="0" width="0.699999" height="0.699999" x="86.0499" id="connector58terminal" stroke="none" y="42.8499" class="terminal"/>
<line y2="50.4" fill="none" stroke-width="0.699999" x1="71.6499" id="connector28pin" stroke="#787878" y1="50.4" class="pin" x2="86.0499" stroke-linecap="round"/>
<text fill="#8c8c8c" text-anchor="end" stroke-width="0" x="70.2499" stroke="none" font-size="3.49999" font-family="'Droid Sans'" y="51.0999" class="text">D10</text>
<g fill="none" stroke-width="0" width="0.699999" height="0.699999" x="86.0499" id="connector28terminal" stroke="none" y="50.0499" class="terminal"/>
<line y2="57.6" fill="none" stroke-width="0.699999" x1="71.6499" id="connector27pin" stroke="#787878" y1="57.6" class="pin" x2="86.0499" stroke-linecap="round"/>
<text fill="#8c8c8c" text-anchor="end" stroke-width="0" x="70.2499" stroke="none" font-size="3.49999" font-family="'Droid Sans'" y="58.2999" class="text">D9</text>
<g fill="none" stroke-width="0" width="0.699999" height="0.699999" x="86.0499" id="connector27terminal" stroke="none" y="57.2499" class="terminal"/>
<line y2="64.8" fill="none" stroke-width="0.699999" x1="71.6499" id="connector26pin" stroke="#787878" y1="64.8" class="pin" x2="86.0499" stroke-linecap="round"/>
<text fill="#8c8c8c" text-anchor="end" stroke-width="0" x="70.2499" stroke="none" font-size="3.49999" font-family="'Droid Sans'" y="65.4999" class="text">D8</text>
<g fill="none" stroke-width="0" width="0.699999" height="0.699999" x="86.0499" id="connector26terminal" stroke="none" y="64.4499" class="terminal"/>
<line y2="72" fill="none" stroke-width="0.699999" x1="71.6499" id="connector25pin" stroke="#787878" y1="72" class="pin" x2="86.0499" stroke-linecap="round"/>
<text fill="#8c8c8c" text-anchor="end" stroke-width="0" x="70.2499" stroke="none" font-size="3.49999" font-family="'Droid Sans'" y="72.6999" class="text">D7</text>
<g fill="none" stroke-width="0" width="0.699999" height="0.699999" x="86.0499" id="connector25terminal" stroke="none" y="71.6499" class="terminal"/>
<line y2="79.2" fill="none" stroke-width="0.699999" x1="71.6499" id="connector24pin" stroke="#787878" y1="79.2" class="pin" x2="86.0499" stroke-linecap="round"/>
<text fill="#8c8c8c" text-anchor="end" stroke-width="0" x="70.2499" stroke="none" font-size="3.49999" font-family="'Droid Sans'" y="79.8999" class="text">D6</text>
<g fill="none" stroke-width="0" width="0.699999" height="0.699999" x="86.0499" id="connector24terminal" stroke="none" y="78.8499" class="terminal"/>
<line y2="86.4" fill="none" stroke-width="0.699999" x1="71.6499" id="connector23pin" stroke="#787878" y1="86.4" class="pin" x2="86.0499" stroke-linecap="round"/>
<text fill="#8c8c8c" text-anchor="end" stroke-width="0" x="70.2499" stroke="none" font-size="3.49999" font-family="'Droid Sans'" y="87.0999" class="text">D5</text>
<g fill="none" stroke-width="0" width="0.699999" height="0.699999" x="86.0499" id="connector23terminal" stroke="none" y="86.0499" class="terminal"/>
<line y2="93.6" fill="none" stroke-width="0.699999" x1="71.6499" id="connector22pin" stroke="#787878" y1="93.6" class="pin" x2="86.0499" stroke-linecap="round"/>
<text fill="#8c8c8c" text-anchor="end" stroke-width="0" x="70.2499" stroke="none" font-size="3.49999" font-family="'Droid Sans'" y="94.2999" class="text">D4</text>
<g fill="none" stroke-width="0" width="0.699999" height="0.699999" x="86.0499" id="connector22terminal" stroke="none" y="93.2499" class="terminal"/>
<line y2="100.8" fill="none" stroke-width="0.699999" x1="71.6499" id="connector21pin" stroke="#787878" y1="100.8" class="pin" x2="86.0499" stroke-linecap="round"/>
<text fill="#8c8c8c" text-anchor="end" stroke-width="0" x="70.2499" stroke="none" font-size="3.49999" font-family="'Droid Sans'" y="101.5" class="text">D3</text>
<g fill="none" stroke-width="0" width="0.699999" height="0.699999" x="86.0499" id="connector21terminal" stroke="none" y="100.45" class="terminal"/>
<line y2="108" fill="none" stroke-width="0.699999" x1="71.6499" id="connector20pin" stroke="#787878" y1="108" class="pin" x2="86.0499" stroke-linecap="round"/>
<text fill="#8c8c8c" text-anchor="end" stroke-width="0" x="70.2499" stroke="none" font-size="3.49999" font-family="'Droid Sans'" y="108.7" class="text">D2</text>
<g fill="none" stroke-width="0" width="0.699999" height="0.699999" x="86.0499" id="connector20terminal" stroke="none" y="107.65" class="terminal"/>
<line y2="122.4" fill="none" stroke-width="0.699999" x1="71.6499" id="connector16pin" stroke="#787878" y1="122.4" class="pin" x2="86.0499" stroke-linecap="round"/>
<text fill="#8c8c8c" text-anchor="end" stroke-width="0" x="70.2499" stroke="none" font-size="3.49999" font-family="'Droid Sans'" y="123.1" class="text">D1/TX</text>
<g fill="none" stroke-width="0" width="0.699999" height="0.699999" x="86.0499" id="connector16terminal" stroke="none" y="122.05" class="terminal"/>
<line y2="129.6" fill="none" stroke-width="0.699999" x1="71.6499" id="connector17pin" stroke="#787878" y1="129.6" class="pin" x2="86.0499" stroke-linecap="round"/>
<text fill="#8c8c8c" text-anchor="end" stroke-width="0" x="70.2499" stroke="none" font-size="3.49999" font-family="'Droid Sans'" y="130.3" class="text">D0/RX</text>
<g fill="none" stroke-width="0" width="0.699999" height="0.699999" x="86.0499" id="connector17terminal" stroke="none" y="129.25" class="terminal"/>
<line y2="28.8" fill="none" stroke-width="0" x1="0.349999" id="connector33pin" stroke="none" y1="28.8" class="pin" x2="14.75" stroke-linecap="round"/>
<g fill="none" stroke-width="0" width="0.699999" height="0.699999" x="-0.349999" id="connector33terminal" stroke="none" y="28.4499" class="terminal"/>
<line y2="28.8" fill="none" stroke-width="0" x1="0.349999" id="connector18pin" stroke="none" y1="28.8" class="pin" x2="14.75" stroke-linecap="round"/>
<g fill="none" stroke-width="0" width="0.699999" height="0.699999" x="-0.349999" id="connector18terminal" stroke="none" y="28.4499" class="terminal"/>
<line y2="28.8" fill="none" stroke-width="0.699999" x1="0.349999" id="connector59pin" stroke="#787878" y1="28.8" class="pin" x2="14.75" stroke-linecap="round"/>
<text fill="#8c8c8c" text-anchor="start" stroke-width="0" x="16.15" stroke="none" font-size="3.49999" font-family="'Droid Sans'" y="29.4999" class="text">RESET</text>
<rect fill="none" stroke-width="0" width="0.699999" height="0.699999" x="-0.349999" id="connector59terminal" stroke="none" y="28.4499" class="terminal"/>
<line y2="36" fill="none" stroke-width="0.699999" x1="0.349999" id="connector43pin" stroke="#787878" y1="36" class="pin" x2="14.75" stroke-linecap="round"/>
<text fill="#8c8c8c" text-anchor="start" stroke-width="0" x="16.15" stroke="none" font-size="3.49999" font-family="'Droid Sans'" y="36.6999" class="text">AREF</text>
<g fill="none" stroke-width="0" width="0.699999" height="0.699999" x="-0.349999" id="connector43terminal" stroke="none" y="35.6499" class="terminal"/>
<line y2="50.4" fill="none" stroke-width="0.699999" x1="0.349999" id="connector42pin" stroke="#787878" y1="50.4" class="pin" x2="14.75" stroke-linecap="round"/>
<text fill="#8c8c8c" text-anchor="start" stroke-width="0" x="16.15" stroke="none" font-size="3.49999" font-family="'Droid Sans'" y="51.0999" class="text">A0</text>
<g fill="none" stroke-width="0" width="0.699999" height="0.699999" x="-0.349999" id="connector42terminal" stroke="none" y="50.0499" class="terminal"/>
<line y2="57.6" fill="none" stroke-width="0.699999" x1="0.349999" id="connector41pin" stroke="#787878" y1="57.6" class="pin" x2="14.75" stroke-linecap="round"/>
<text fill="#8c8c8c" text-anchor="start" stroke-width="0" x="16.15" stroke="none" font-size="3.49999" font-family="'Droid Sans'" y="58.2999" class="text">A1</text>
<g fill="none" stroke-width="0" width="0.699999" height="0.699999" x="-0.349999" id="connector41terminal" stroke="none" y="57.2499" class="terminal"/>
<line y2="64.8" fill="none" stroke-width="0.699999" x1="0.349999" id="connector40pin" stroke="#787878" y1="64.8" class="pin" x2="14.75" stroke-linecap="round"/>
<text fill="#8c8c8c" text-anchor="start" stroke-width="0" x="16.15" stroke="none" font-size="3.49999" font-family="'Droid Sans'" y="65.4999" class="text">A2</text>
<g fill="none" stroke-width="0" width="0.699999" height="0.699999" x="-0.349999" id="connector40terminal" stroke="none" y="64.4499" class="terminal"/>
<line y2="72" fill="none" stroke-width="0.699999" x1="0.349999" id="connector39pin" stroke="#787878" y1="72" class="pin" x2="14.75" stroke-linecap="round"/>
<text fill="#8c8c8c" text-anchor="start" stroke-width="0" x="16.15" stroke="none" font-size="3.49999" font-family="'Droid Sans'" y="72.6999" class="text">A3</text>
<g fill="none" stroke-width="0" width="0.699999" height="0.699999" x="-0.349999" id="connector39terminal" stroke="none" y="71.6499" class="terminal"/>
<line y2="79.2" fill="none" stroke-width="0.699999" x1="0.349999" id="connector38pin" stroke="#787878" y1="79.2" class="pin" x2="14.75" stroke-linecap="round"/>
<text fill="#8c8c8c" text-anchor="start" stroke-width="0" x="16.15" stroke="none" font-size="3.49999" font-family="'Droid Sans'" y="79.8999" class="text">A4</text>
<g fill="none" stroke-width="0" width="0.699999" height="0.699999" x="-0.349999" id="connector38terminal" stroke="none" y="78.8499" class="terminal"/>
<line y2="86.4" fill="none" stroke-width="0.699999" x1="0.349999" id="connector37pin" stroke="#787878" y1="86.4" class="pin" x2="14.75" stroke-linecap="round"/>
<text fill="#8c8c8c" text-anchor="start" stroke-width="0" x="16.15" stroke="none" font-size="3.49999" font-family="'Droid Sans'" y="87.0999" class="text">A5</text>
<g fill="none" stroke-width="0" width="0.699999" height="0.699999" x="-0.349999" id="connector37terminal" stroke="none" y="86.0499" class="terminal"/>
<line y2="93.6" fill="none" stroke-width="0.699999" x1="0.349999" id="connector36pin" stroke="#787878" y1="93.6" class="pin" x2="14.75" stroke-linecap="round"/>
<text fill="#8c8c8c" text-anchor="start" stroke-width="0" x="16.15" stroke="none" font-size="3.49999" font-family="'Droid Sans'" y="94.2999" class="text">A6</text>
<g fill="none" stroke-width="0" width="0.699999" height="0.699999" x="-0.349999" id="connector36terminal" stroke="none" y="93.2499" class="terminal"/>
<line y2="100.8" fill="none" stroke-width="0.699999" x1="0.349999" id="connector35pin" stroke="#787878" y1="100.8" class="pin" x2="14.75" stroke-linecap="round"/>
<text fill="#8c8c8c" text-anchor="start" stroke-width="0" x="16.15" stroke="none" font-size="3.49999" font-family="'Droid Sans'" y="101.5" class="text">A7</text>
<g fill="none" stroke-width="0" width="0.699999" height="0.699999" x="-0.349999" id="connector35terminal" stroke="none" y="100.45" class="terminal"/>
<line y2="158.05" fill="none" stroke-width="0" x1="43.2" id="connector19pin" stroke="none" y1="143.65" class="pin" x2="43.2" stroke-linecap="round"/>
<g fill="none" stroke-width="0" width="0.699999" height="0.699999" x="42.8499" id="connector19terminal" stroke="none" y="158.05" class="terminal"/>
<line y2="158.05" fill="none" stroke-width="0" x1="43.2" id="connector32pin" stroke="none" y1="143.65" class="pin" x2="43.2" stroke-linecap="round"/>
<g fill="none" stroke-width="0" width="0.699999" height="0.699999" x="42.8499" id="connector32terminal" stroke="none" y="158.05" class="terminal"/>
<line y2="158.05" fill="none" stroke-width="0.699999" x1="43.2" id="connector60pin" stroke="#787878" y1="143.65" class="pin" x2="43.2" stroke-linecap="round"/>
<g transform="matrix(1, 0, 0, 1, 43.8999, 142.25)">
<g>
<g transform="rotate(270)">
<g>
<text fill="#8c8c8c" text-anchor="start" stroke-width="0" x="0" stroke="none" font-size="3.49999" font-family="'Droid Sans'" y="0" class="text">GND</text>
</g>
</g>
</g>
</g>
<rect fill="none" stroke-width="0" width="0.699999" height="0.699999" x="42.8499" id="connector60terminal" stroke="none" y="158.05" class="terminal"/>
<line y2="14.75" fill="none" stroke-width="0.699999" x1="28.8" id="connector31pin" stroke="#787878" y1="0.349999" class="pin" x2="28.8" stroke-linecap="round"/>
<g transform="matrix(1, 0, 0, 1, 29.4999, 16.15)">
<g>
<g transform="rotate(270)">
<g>
<text fill="#8c8c8c" text-anchor="end" stroke-width="0" x="0" stroke="none" font-size="3.49999" font-family="'Droid Sans'" y="0" class="text">VIN</text>
</g>
</g>
</g>
</g>
<g fill="none" stroke-width="0" width="0.699999" height="0.699999" x="28.4499" id="connector31terminal" stroke="none" y="-0.349999" class="terminal"/>
<line y2="14.75" fill="none" stroke-width="0" x1="43.2" id="connector34pin" stroke="none" y1="0.349999" class="pin" x2="43.2" stroke-linecap="round"/>
<g fill="none" stroke-width="0" width="0.699999" height="0.699999" x="42.8499" id="connector34terminal" stroke="none" y="-0.349999" class="terminal"/>
<line y2="14.75" fill="none" stroke-width="0.699999" x1="43.2" id="connector56pin" stroke="#787878" y1="0.349999" class="pin" x2="43.2" stroke-linecap="round"/>
<g transform="matrix(1, 0, 0, 1, 43.8999, 16.15)">
<g>
<g transform="rotate(270)">
<g>
<text fill="#8c8c8c" text-anchor="end" stroke-width="0" x="0" stroke="none" font-size="3.49999" font-family="'Droid Sans'" y="0" class="text">5V</text>
</g>
</g>
</g>
</g>
<rect fill="none" stroke-width="0" width="0.699999" height="0.699999" x="42.8499" id="connector56terminal" stroke="none" y="-0.349999" class="terminal"/>
<line y2="14.75" fill="none" stroke-width="0.699999" x1="57.6" id="connector44pin" stroke="#787878" y1="0.349999" class="pin" x2="57.6" stroke-linecap="round"/>
<g transform="matrix(1, 0, 0, 1, 58.2999, 16.15)">
<g>
<g transform="rotate(270)">
<g>
<text fill="#8c8c8c" text-anchor="end" stroke-width="0" x="0" stroke="none" font-size="3.49999" font-family="'Droid Sans'" y="0" class="text">3V3</text>
</g>
</g>
</g>
</g>
<g fill="none" stroke-width="0" width="0.699999" height="0.699999" x="57.2499" id="connector44terminal" stroke="none" y="-0.349999" class="terminal"/>
<text fill="#000000" text-anchor="middle" stroke-width="0" id="label" x="43.6499" stroke="none" font-size="4.25001" font-family="'Droid Sans'" y="72.8498" class="text">Arduino</text>
<text fill="#000000" text-anchor="middle" stroke-width="0" id="label" x="43.6499" stroke="none" font-size="4.25001" font-family="'Droid Sans'" y="77.3833" class="text">Nano</text>
<text fill="#000000" text-anchor="middle" stroke-width="0" id="label" x="43.6499" stroke="none" font-size="4.25001" font-family="'Droid Sans'" y="81.9167" class="text">(Rev3.0)</text>
</g>
</g></g><g partID='112420'><g transform='translate(176.5,114.464)' ><g id="schematic" xmlns="http://www.w3.org/2000/svg">
<line y2="0.216" stroke-width="0.432002" x1="7.55002" xmlns="http://www.w3.org/2000/svg" stroke="#000000" y1="3.096" class="other" x2="8.63003" stroke-linecap="round"/>
<line y2="5.976" stroke-width="0.432002" x1="8.63003" xmlns="http://www.w3.org/2000/svg" stroke="#000000" y1="0.216" class="other" x2="10.43" stroke-linecap="round"/>
<line y2="0.216" stroke-width="0.432002" x1="10.43" xmlns="http://www.w3.org/2000/svg" stroke="#000000" y1="5.976" class="other" x2="12.23" stroke-linecap="round"/>
<line y2="5.976" stroke-width="0.432002" x1="12.23" xmlns="http://www.w3.org/2000/svg" stroke="#000000" y1="0.216" class="other" x2="14.03" stroke-linecap="round"/>
<line y2="0.216" stroke-width="0.432002" x1="14.03" xmlns="http://www.w3.org/2000/svg" stroke="#000000" y1="5.976" class="other" x2="15.8301" stroke-linecap="round"/>
<line y2="5.976" stroke-width="0.432002" x1="15.8301" xmlns="http://www.w3.org/2000/svg" stroke="#000000" y1="0.216" class="other" x2="17.6301" stroke-linecap="round"/>
<line y2="0.216" stroke-width="0.432002" x1="17.6301" xmlns="http://www.w3.org/2000/svg" stroke="#000000" y1="5.976" class="other" x2="19.4301" stroke-linecap="round"/>
<line y2="5.976" stroke-width="0.432002" x1="19.4301" xmlns="http://www.w3.org/2000/svg" stroke="#000000" y1="0.216" class="other" x2="21.2301" stroke-linecap="round"/>
<line y2="3.096" stroke-width="0.432002" x1="21.2301" xmlns="http://www.w3.org/2000/svg" stroke="#000000" y1="5.976" class="other" x2="21.9501" stroke-linecap="round"/>
<line y2="3.096" stroke-width="0.700001" x1="29.1502" id="connector1pin" xmlns="http://www.w3.org/2000/svg" stroke="#787878" y1="3.096" class="pin" connectorname="2" x2="21.9501" stroke-linecap="round"/>
<g fill="none" stroke-width="0" width="0.000283466" height="0.000283465" id="connector1terminal" x="29.1502" xmlns="http://www.w3.org/2000/svg" stroke="none" y="3.096" class="terminal"/>
<text fill="#8c8c8c" text-anchor="middle" stroke-width="0" x="25.5501" xmlns="http://www.w3.org/2000/svg" stroke="none" font-size="2.50001" font-family="'Droid Sans'" y="2.046" class="text">2</text>
<line y2="3.096" stroke-width="0.700001" x1="0.350001" id="connector0pin" xmlns="http://www.w3.org/2000/svg" stroke="#787878" y1="3.096" class="pin" connectorname="1" x2="7.55002" stroke-linecap="round"/>
<g fill="none" stroke-width="0" width="0.000283466" height="0.000283465" id="connector0terminal" x="0.350001" xmlns="http://www.w3.org/2000/svg" stroke="none" y="3.096" class="terminal"/>
<text fill="#8c8c8c" text-anchor="middle" stroke-width="0" x="3.95001" xmlns="http://www.w3.org/2000/svg" stroke="none" font-size="2.50001" font-family="'Droid Sans'" y="2.046" class="text">1</text>
</g>
</g></g><g partID='112390'><g transform='translate(176.5,85.6638)' ><g id="schematic" xmlns="http://www.w3.org/2000/svg">
<line y2="0.216" stroke-width="0.432002" x1="7.55002" xmlns="http://www.w3.org/2000/svg" stroke="#000000" y1="3.096" class="other" x2="8.63003" stroke-linecap="round"/>
<line y2="5.976" stroke-width="0.432002" x1="8.63003" xmlns="http://www.w3.org/2000/svg" stroke="#000000" y1="0.216" class="other" x2="10.43" stroke-linecap="round"/>
<line y2="0.216" stroke-width="0.432002" x1="10.43" xmlns="http://www.w3.org/2000/svg" stroke="#000000" y1="5.976" class="other" x2="12.23" stroke-linecap="round"/>
<line y2="5.976" stroke-width="0.432002" x1="12.23" xmlns="http://www.w3.org/2000/svg" stroke="#000000" y1="0.216" class="other" x2="14.03" stroke-linecap="round"/>
<line y2="0.216" stroke-width="0.432002" x1="14.03" xmlns="http://www.w3.org/2000/svg" stroke="#000000" y1="5.976" class="other" x2="15.8301" stroke-linecap="round"/>
<line y2="5.976" stroke-width="0.432002" x1="15.8301" xmlns="http://www.w3.org/2000/svg" stroke="#000000" y1="0.216" class="other" x2="17.6301" stroke-linecap="round"/>
<line y2="0.216" stroke-width="0.432002" x1="17.6301" xmlns="http://www.w3.org/2000/svg" stroke="#000000" y1="5.976" class="other" x2="19.4301" stroke-linecap="round"/>
<line y2="5.976" stroke-width="0.432002" x1="19.4301" xmlns="http://www.w3.org/2000/svg" stroke="#000000" y1="0.216" class="other" x2="21.2301" stroke-linecap="round"/>
<line y2="3.096" stroke-width="0.432002" x1="21.2301" xmlns="http://www.w3.org/2000/svg" stroke="#000000" y1="5.976" class="other" x2="21.9501" stroke-linecap="round"/>
<line y2="3.096" stroke-width="0.700001" x1="29.1502" id="connector1pin" xmlns="http://www.w3.org/2000/svg" stroke="#787878" y1="3.096" class="pin" connectorname="2" x2="21.9501" stroke-linecap="round"/>
<g fill="none" stroke-width="0" width="0.000283466" height="0.000283465" id="connector1terminal" x="29.1502" xmlns="http://www.w3.org/2000/svg" stroke="none" y="3.096" class="terminal"/>
<text fill="#8c8c8c" text-anchor="middle" stroke-width="0" x="25.5501" xmlns="http://www.w3.org/2000/svg" stroke="none" font-size="2.50001" font-family="'Droid Sans'" y="2.046" class="text">2</text>
<line y2="3.096" stroke-width="0.700001" x1="0.350001" id="connector0pin" xmlns="http://www.w3.org/2000/svg" stroke="#787878" y1="3.096" class="pin" connectorname="1" x2="7.55002" stroke-linecap="round"/>
<g fill="none" stroke-width="0" width="0.000283466" height="0.000283465" id="connector0terminal" x="0.350001" xmlns="http://www.w3.org/2000/svg" stroke="none" y="3.096" class="terminal"/>
<text fill="#8c8c8c" text-anchor="middle" stroke-width="0" x="3.95001" xmlns="http://www.w3.org/2000/svg" stroke="none" font-size="2.50001" font-family="'Droid Sans'" y="2.046" class="text">1</text>
</g>
</g></g><g partID='113760'><g transform='translate(202.95,131.744)' ><g id="schematic">
<g>
<path d="M13.5,14.966L9.9,14.966c-0.193,0,-0.35,-0.156,-0.35,-0.35s0.156,-0.35,0.35,-0.35L13.5,14.266c0.193,0,0.35,0.156,0.35,0.35S13.694,14.966,13.5,14.966z"/>
</g>
<g>
<path d="M9.9,14.966L6.3,14.966c-0.193,0,-0.35,-0.156,-0.35,-0.35s0.157,-0.35,0.35,-0.35l3.6,0c0.193,0,0.35,0.156,0.35,0.35S10.093,14.966,9.9,14.966z"/>
</g>
<g>
<polygon fill="#FFFFFF" points="9.9,14.616,6.3,7.416,9.9,7.416,13.5,7.416"/>
<path d="M9.9,15.398L5.734,7.066l8.333,0L9.9,15.398zM6.866,7.766L9.9,13.834l3.034,-6.068L6.866,7.766z"/>
</g>
<g>
<path d="M9.9,14.841c-0.124,0,-0.225,-0.101,-0.225,-0.225l0,-7.2c0,-0.124,0.101,-0.225,0.225,-0.225s0.225,0.101,0.225,0.225l0,7.2C10.124,14.74,10.024,14.841,9.9,14.841z"/>
</g>
<g>
<path d="M1.8,12.141c-0.058,0,-0.115,-0.021,-0.159,-0.065c-0.088,-0.088,-0.088,-0.23,0,-0.318l2.34,-2.341c0.088,-0.088,0.23,-0.088,0.318,0s0.088,0.23,0,0.318l-2.34,2.341C1.915,12.12,1.858,12.141,1.8,12.141z"/>
</g>
<g>
<path d="M2.16,15.381c-0.058,0,-0.115,-0.021,-0.159,-0.065c-0.088,-0.088,-0.088,-0.23,0,-0.318l2.34,-2.34c0.088,-0.088,0.23,-0.088,0.318,0s0.088,0.23,0,0.318l-2.34,2.34C2.276,15.359,2.218,15.381,2.16,15.381z"/>
</g>
<g id="connector0pin">
<path fill="#787878" d="M9.9,22.166c-0.193,0,-0.35,-0.156,-0.35,-0.35l0,-7.2c0,-0.193,0.156,-0.35,0.35,-0.35s0.35,0.156,0.35,0.35l0,7.2C10.249,22.01,10.093,22.166,9.9,22.166z"/>
</g>
<g id="connector0terminal">
<rect fill="none" width="0.001" height="0.001" x="9.9" y="21.816"/>
</g>
<g transform="matrix(1, 0, 0, 1, 3.429, 6.4262)">
<g>
<g transform="rotate(270)">
<g>
<g enable-background="new    ">
<path fill="#787878" d="M-11.647,5.54l-0.891,0L-12.538,5.388l0.342,-0.372c0.049,-0.053,0.093,-0.101,0.131,-0.145s0.071,-0.086,0.099,-0.128c0.026,-0.042,0.047,-0.084,0.062,-0.125c0.015,-0.043,0.021,-0.088,0.021,-0.138c0,-0.038,-0.005,-0.072,-0.017,-0.102s-0.027,-0.054,-0.047,-0.075c-0.021,-0.02,-0.045,-0.035,-0.073,-0.046s-0.06,-0.016,-0.094,-0.016c-0.062,0,-0.118,0.013,-0.167,0.038c-0.051,0.024,-0.098,0.057,-0.143,0.096l-0.1,-0.116c0.025,-0.023,0.055,-0.046,0.084,-0.065c0.029,-0.021,0.063,-0.039,0.097,-0.054s0.071,-0.026,0.109,-0.036c0.038,-0.008,0.079,-0.013,0.121,-0.013c0.063,0,0.119,0.009,0.169,0.026c0.051,0.018,0.094,0.043,0.129,0.076c0.035,0.032,0.063,0.072,0.082,0.119c0.019,0.048,0.028,0.101,0.028,0.16c0,0.056,-0.009,0.108,-0.026,0.158c-0.017,0.05,-0.041,0.1,-0.07,0.148c-0.031,0.048,-0.066,0.097,-0.109,0.146c-0.041,0.049,-0.087,0.1,-0.136,0.152L-12.32,5.37l0,0.008l0.673,0L-11.647,5.54z"/>
</g>
</g>
</g>
</g>
</g>
<g id="connector1pin">
<path fill="#787878" d="M9.9,7.766c-0.193,0,-0.35,-0.157,-0.35,-0.35l0,-7.2c0,-0.193,0.156,-0.35,0.35,-0.35s0.35,0.157,0.35,0.35l0,7.2C10.249,7.609,10.093,7.766,9.9,7.766z"/>
</g>
<g id="connector1terminal">
<polygon fill="none" points="9.9,0.216,9.901,0.216,9.901,0.216"/>
</g>
<g transform="matrix(1, 0, 0, 1, 3.429, 1.3462)">
<g>
<g transform="rotate(270)">
<g>
<g enable-background="new    ">
<path fill="#787878" d="M-2.616,5.54l-0.172,0L-2.788,4.648c0,-0.028,0,-0.058,0,-0.09s0.001,-0.063,0.002,-0.095c0.001,-0.032,0.002,-0.063,0.003,-0.092c0.001,-0.028,0.002,-0.054,0.002,-0.076c-0.011,0.012,-0.021,0.021,-0.029,0.03s-0.017,0.017,-0.026,0.024s-0.018,0.016,-0.028,0.025c-0.01,0.008,-0.021,0.019,-0.035,0.03l-0.145,0.118l-0.094,-0.12l0.374,-0.292l0.146,0L-2.618,5.54z"/>
</g>
</g>
</g>
</g>
</g>
<g>
<path d="M0.18,13.536l1.08,-2.521l1.44,1.438L0.18,13.536z"/>
</g>
<g>
<path d="M0.54,16.776l1.08,-2.521l1.438,1.438L0.54,16.776z"/>
</g>
</g>
</g></g><g partID='113660'><g transform='translate(246.15,88.544)' ><g id="schematic">
<g>
<path d="M13.5,14.966L9.9,14.966c-0.193,0,-0.35,-0.156,-0.35,-0.35s0.156,-0.35,0.35,-0.35L13.5,14.266c0.193,0,0.35,0.156,0.35,0.35S13.694,14.966,13.5,14.966z"/>
</g>
<g>
<path d="M9.9,14.966L6.3,14.966c-0.193,0,-0.35,-0.156,-0.35,-0.35s0.157,-0.35,0.35,-0.35l3.6,0c0.193,0,0.35,0.156,0.35,0.35S10.093,14.966,9.9,14.966z"/>
</g>
<g>
<polygon fill="#FFFFFF" points="9.9,14.616,6.3,7.416,9.9,7.416,13.5,7.416"/>
<path d="M9.9,15.398L5.734,7.066l8.333,0L9.9,15.398zM6.866,7.766L9.9,13.834l3.034,-6.068L6.866,7.766z"/>
</g>
<g>
<path d="M9.9,14.841c-0.124,0,-0.225,-0.101,-0.225,-0.225l0,-7.2c0,-0.124,0.101,-0.225,0.225,-0.225s0.225,0.101,0.225,0.225l0,7.2C10.124,14.74,10.024,14.841,9.9,14.841z"/>
</g>
<g>
<path d="M1.8,12.141c-0.058,0,-0.115,-0.021,-0.159,-0.065c-0.088,-0.088,-0.088,-0.23,0,-0.318l2.34,-2.341c0.088,-0.088,0.23,-0.088,0.318,0s0.088,0.23,0,0.318l-2.34,2.341C1.915,12.12,1.858,12.141,1.8,12.141z"/>
</g>
<g>
<path d="M2.16,15.381c-0.058,0,-0.115,-0.021,-0.159,-0.065c-0.088,-0.088,-0.088,-0.23,0,-0.318l2.34,-2.34c0.088,-0.088,0.23,-0.088,0.318,0s0.088,0.23,0,0.318l-2.34,2.34C2.276,15.359,2.218,15.381,2.16,15.381z"/>
</g>
<g id="connector0pin">
<path fill="#787878" d="M9.9,22.166c-0.193,0,-0.35,-0.156,-0.35,-0.35l0,-7.2c0,-0.193,0.156,-0.35,0.35,-0.35s0.35,0.156,0.35,0.35l0,7.2C10.249,22.01,10.093,22.166,9.9,22.166z"/>
</g>
<g id="connector0terminal">
<rect fill="none" width="0.001" height="0.001" x="9.9" y="21.816"/>
</g>
<g transform="matrix(1, 0, 0, 1, 3.429, 6.4262)">
<g>
<g transform="rotate(270)">
<g>
<g enable-background="new    ">
<path fill="#787878" d="M-11.647,5.54l-0.891,0L-12.538,5.388l0.342,-0.372c0.049,-0.053,0.093,-0.101,0.131,-0.145s0.071,-0.086,0.099,-0.128c0.026,-0.042,0.047,-0.084,0.062,-0.125c0.015,-0.043,0.021,-0.088,0.021,-0.138c0,-0.038,-0.005,-0.072,-0.017,-0.102s-0.027,-0.054,-0.047,-0.075c-0.021,-0.02,-0.045,-0.035,-0.073,-0.046s-0.06,-0.016,-0.094,-0.016c-0.062,0,-0.118,0.013,-0.167,0.038c-0.051,0.024,-0.098,0.057,-0.143,0.096l-0.1,-0.116c0.025,-0.023,0.055,-0.046,0.084,-0.065c0.029,-0.021,0.063,-0.039,0.097,-0.054s0.071,-0.026,0.109,-0.036c0.038,-0.008,0.079,-0.013,0.121,-0.013c0.063,0,0.119,0.009,0.169,0.026c0.051,0.018,0.094,0.043,0.129,0.076c0.035,0.032,0.063,0.072,0.082,0.119c0.019,0.048,0.028,0.101,0.028,0.16c0,0.056,-0.009,0.108,-0.026,0.158c-0.017,0.05,-0.041,0.1,-0.07,0.148c-0.031,0.048,-0.066,0.097,-0.109,0.146c-0.041,0.049,-0.087,0.1,-0.136,0.152L-12.32,5.37l0,0.008l0.673,0L-11.647,5.54z"/>
</g>
</g>
</g>
</g>
</g>
<g id="connector1pin">
<path fill="#787878" d="M9.9,7.766c-0.193,0,-0.35,-0.157,-0.35,-0.35l0,-7.2c0,-0.193,0.156,-0.35,0.35,-0.35s0.35,0.157,0.35,0.35l0,7.2C10.249,7.609,10.093,7.766,9.9,7.766z"/>
</g>
<g id="connector1terminal">
<polygon fill="none" points="9.9,0.216,9.901,0.216,9.901,0.216"/>
</g>
<g transform="matrix(1, 0, 0, 1, 3.429, 1.3462)">
<g>
<g transform="rotate(270)">
<g>
<g enable-background="new    ">
<path fill="#787878" d="M-2.616,5.54l-0.172,0L-2.788,4.648c0,-0.028,0,-0.058,0,-0.09s0.001,-0.063,0.002,-0.095c0.001,-0.032,0.002,-0.063,0.003,-0.092c0.001,-0.028,0.002,-0.054,0.002,-0.076c-0.011,0.012,-0.021,0.021,-0.029,0.03s-0.017,0.017,-0.026,0.024s-0.018,0.016,-0.028,0.025c-0.01,0.008,-0.021,0.019,-0.035,0.03l-0.145,0.118l-0.094,-0.12l0.374,-0.292l0.146,0L-2.618,5.54z"/>
</g>
</g>
</g>
</g>
</g>
<g>
<path d="M0.18,13.536l1.08,-2.521l1.44,1.438L0.18,13.536z"/>
</g>
<g>
<path d="M0.54,16.776l1.08,-2.521l1.438,1.438L0.54,16.776z"/>
</g>
</g>
</g></g><g partID='117690'><g transform='translate(0,70.372)' ><g id="schematic">
<line fill="none" y2="11.188" stroke-width="0.9" x1="22.05" stroke="#000000" y1="11.188" stroke-linecap="round" x2="0.45"/>
<line fill="none" y2="14.788" stroke-width="0.9" x1="14.851" stroke="#000000" y1="14.788" stroke-linecap="round" x2="7.65"/>
<line fill="none" y2="18.388" stroke-width="0.9" x1="22.05" stroke="#000000" y1="18.388" stroke-linecap="round" x2="0.45"/>
<line fill="none" y2="21.988" stroke-width="0.9" x1="14.851" stroke="#000000" y1="21.988" stroke-linecap="round" x2="7.65"/>
<line fill="none" y2="11.188" stroke-width="0.75" x1="11.25" stroke="#000000" y1="7.588" stroke-linecap="round" x2="11.25"/>
<line fill="none" y2="21.988" stroke-width="0.75" x1="11.25" id="connector1pin" stroke="#787878" y1="29.188" stroke-linecap="round" x2="11.25"/>
<g fill="none" width="0" height="0" id="connector1terminal" x="11.25" y="29.188"/>
<g transform="matrix(1, 0, 0, 1, 12.3809, 26.3574)">
<text fill="#8C8C8C" font-size="2.5" font-family="'DroidSans'">1</text>
</g>
<line fill="none" y2="7.588" stroke-width="0.75" x1="11.25" id="connector0pin" stroke="#787878" y1="0.388" stroke-linecap="round" x2="11.25"/>
<g fill="none" width="0" height="0" id="connector0terminal" x="11.25" y="0.388"/>
<g transform="matrix(1, 0, 0, 1, 12.3809, 4.7578)">
<text fill="#8C8C8C" font-size="2.5" font-family="'DroidSans'">2</text>
</g>
<g transform="matrix(1, 0, 0, 1, 7.8984, 4.7578)">
<text fill="#F8141F" font-size="2.5" font-family="'DroidSans'">+</text>
</g>
<g transform="matrix(1, 0, 0, 1, 8.792, 26.0723)">
<text font-size="2.5" font-family="'DroidSans'">-</text>
</g>
</g>
</g></g><g partID='118140'><g transform='translate(183.881,16.7592)' ><g id="schematic" xmlns="http://www.w3.org/2000/svg">
<rect fill="none" width="4.063" height="0.677" id="connector0pin" xmlns="http://www.w3.org/2000/svg" y="28.461"/>
<rect fill="none" width="4.063" height="0.677" id="connector1pin" xmlns="http://www.w3.org/2000/svg" y="14.062"/>
<rect fill="none" width="4.063" height="0.677" id="connector2pin" xmlns="http://www.w3.org/2000/svg" y="21.262"/>
<g fill="none" width="0.338" height="0.677" id="connector0terminal" xmlns="http://www.w3.org/2000/svg" y="28.461"/>
<g fill="none" width="0.338" height="0.677" id="connector1terminal" xmlns="http://www.w3.org/2000/svg" y="14.062"/>
<g fill="none" width="0.338" height="0.677" id="connector2terminal" xmlns="http://www.w3.org/2000/svg" y="21.262"/>
<g id="Diagram" xmlns="http://www.w3.org/2000/svg">
<rect fill="none" stroke-width="0.9" stroke-linejoin="round" width="28.8" height="28.8" x="7.2" xmlns="http://www.w3.org/2000/svg" stroke="#000000" y="7.2" stroke-linecap="round"/>
<line fill="none" y2="28.8" stroke-width="0.7" stroke-linejoin="round" x1="7.2" xmlns="http://www.w3.org/2000/svg" stroke="#787878" y1="28.8" stroke-linecap="round" x2="0"/>
<line fill="none" y2="14.4" stroke-width="0.7" stroke-linejoin="round" x1="0" xmlns="http://www.w3.org/2000/svg" stroke="#787878" y1="14.4" stroke-linecap="round" x2="7.2"/>
<line fill="none" y2="21.6" stroke-width="0.7" stroke-linejoin="round" x1="0" xmlns="http://www.w3.org/2000/svg" stroke="#787878" y1="21.6" stroke-linecap="round" x2="7.2"/>
<g xmlns="http://www.w3.org/2000/svg">
<path fill="#FFFFFF" stroke-width="0.9" stroke-linejoin="round" d="M46.091,15.05c-0.469,-1.065,-1.604,-1.63,-2.701,-1.424l0,0l-12.355,1.986l0.002,0.004c-0.513,0.071,-1.023,0.209,-1.521,0.427c-2.91,1.278,-4.233,4.675,-2.955,7.585c1.277,2.911,4.674,4.233,7.584,2.956c0.498,-0.219,0.944,-0.503,1.344,-0.832l0.002,0.004l9.823,-7.753l-0.001,-0.001C46.206,17.333,46.559,16.116,46.091,15.05z" xmlns="http://www.w3.org/2000/svg" stroke="#000000" stroke-linecap="round"/>
<circle fill="none" stroke-width="0.9" stroke-linejoin="round" cx="31.83" cy="21.313" xmlns="http://www.w3.org/2000/svg" stroke="#000000" r="3.301" stroke-linecap="round"/>
<circle fill="#FFFFFF" stroke-width="0.9" stroke-linejoin="round" cx="43.843" cy="16.037" xmlns="http://www.w3.org/2000/svg" stroke="#000000" r="1.051" stroke-linecap="round"/>
</g>
</g>
</g>
</g></g><g partID='122630'><line stroke-linecap='round' stroke='#cc1414' x1='133.65' y1='9.56014' x2='47.2503' y2='9.56014' stroke-width='0.699998' /></g><circle  fill="black" cx="47.2503" cy="9.56014" r="1.44" stroke-width="0" stroke="none" /><g partID='122810'><line stroke-linecap='round' stroke='#cc1414' x1='184.05' y1='9.5088' x2='162.45' y2='9.56014' stroke-width='0.699998' /></g><g partID='122740'><line stroke-linecap='round' stroke='#cc1414' x1='184.05' y1='31.1597' x2='184.05' y2='9.5088' stroke-width='0.699998' /></g><g partID='112730'><line stroke-linecap='round' stroke='#cc1414' x1='169.65' y1='88.76' x2='169.65' y2='103.16' stroke-width='0.699998' /></g><g partID='112620'><line stroke-linecap='round' stroke='#cc1414' x1='169.65' y1='103.16' x2='140.85' y2='103.16' stroke-width='0.699998' /></g><circle  fill="black" cx="140.85" cy="103.16" r="1.44" stroke-width="0" stroke="none" /><g partID='112440'><line stroke-linecap='round' stroke='#cc1414' x1='176.85' y1='88.76' x2='169.65' y2='88.76' stroke-width='0.699998' /></g><g partID='112950'><line stroke-linecap='round' stroke='#cc1414' x1='169.65' y1='117.56' x2='176.85' y2='117.56' stroke-width='0.699998' /></g><g partID='112840'><line stroke-linecap='round' stroke='#cc1414' x1='169.65' y1='103.16' x2='169.65' y2='117.56' stroke-width='0.699998' /></g><g partID='112510'><line stroke-linecap='round' stroke='#cc1414' x1='140.85' y1='103.16' x2='169.65' y2='103.16' stroke-width='0.699998' /></g><circle  fill="black" cx="140.85" cy="103.16" r="1.44" stroke-width="0" stroke="none" /><g partID='113690'><line stroke-linecap='round' stroke='#cc1414' x1='256.05' y1='88.76' x2='205.65' y2='88.76' stroke-width='0.699998' /></g><g partID='113850'><line stroke-linecap='round' stroke='#cc1414' x1='212.85' y1='117.56' x2='205.65' y2='117.56' stroke-width='0.699998' /></g><g partID='113780'><line stroke-linecap='round' stroke='#cc1414' x1='212.85' y1='131.96' x2='212.85' y2='117.56' stroke-width='0.699998' /></g><g partID='114010'><line stroke-linecap='round' stroke='#404040' x1='212.85' y1='175.16' x2='212.85' y2='153.56' stroke-width='0.699998' /></g><g partID='113940'><line stroke-linecap='round' stroke='#404040' x1='97.6504' y1='175.16' x2='212.85' y2='175.16' stroke-width='0.699998' /></g><circle  fill="black" cx="97.6504" cy="175.16" r="1.44" stroke-width="0" stroke="none" /><g partID='114170'><line stroke-linecap='round' stroke='#404040' x1='256.05' y1='175.16' x2='256.05' y2='110.36' stroke-width='0.699998' /></g><g partID='114080'><line stroke-linecap='round' stroke='#404040' x1='97.6504' y1='175.16' x2='256.05' y2='175.16' stroke-width='0.699998' /></g><circle  fill="black" cx="97.6504" cy="175.16" r="1.44" stroke-width="0" stroke="none" /><g partID='117870'><line stroke-linecap='round' stroke='#404040' x1='11.2504' y1='175.16' x2='11.2504' y2='95.96' stroke-width='0.699998' /></g><g partID='117780'><line stroke-linecap='round' stroke='#404040' x1='97.6504' y1='175.16' x2='11.2504' y2='175.16' stroke-width='0.699998' /></g><circle  fill="black" cx="97.6504" cy="175.16" r="1.44" stroke-width="0" stroke="none" /><g partID='118310'><line stroke-linecap='round' stroke='#fff800' x1='169.65' y1='38.36' x2='184.05' y2='38.3597' stroke-width='0.699998' /></g><g partID='118240'><line stroke-linecap='round' stroke='#fff800' x1='169.65' y1='74.36' x2='169.65' y2='38.36' stroke-width='0.699998' /></g><g partID='118170'><line stroke-linecap='round' stroke='#fff800' x1='140.85' y1='74.3599' x2='169.65' y2='74.36' stroke-width='0.699998' /></g><g partID='118620'><line stroke-linecap='round' stroke='#cc1414' x1='83.2024' y1='9.5088' x2='47.2503' y2='9.56014' stroke-width='0.699998' /></g><circle  fill="black" cx="47.2503" cy="9.56014" r="1.44" stroke-width="0" stroke="none" /><g partID='118590'><line stroke-linecap='round' stroke='#cc1414' x1='83.2503' y1='16.76' x2='83.2024' y2='9.5088' stroke-width='0.699998' /></g><g partID='118720'><line stroke-linecap='round' stroke='#cc1414' x1='11.2504' y1='9.56' x2='18.4502' y2='9.56' stroke-width='0.699998' /></g><g partID='118650'><line stroke-linecap='round' stroke='#cc1414' x1='11.2504' y1='74.36' x2='11.2508' y2='9.56' stroke-width='0.699998' /></g><g partID='119250'><line stroke-linecap='round' stroke='#404040' x1='292.05' y1='59.96' x2='184.05' y2='59.96' stroke-width='0.699998' /></g><g partID='119120'><line stroke-linecap='round' stroke='#404040' x1='184.05' y1='59.96' x2='184.05' y2='45.5587' stroke-width='0.699998' /></g><g partID='118990'><line stroke-linecap='round' stroke='#404040' x1='292.05' y1='175.16' x2='292.05' y2='59.96' stroke-width='0.699998' /></g><g partID='118860'><line stroke-linecap='round' stroke='#404040' x1='97.6504' y1='175.16' x2='292.05' y2='175.16' stroke-width='0.699998' /></g><circle  fill="black" cx="97.6504" cy="175.16" r="1.44" stroke-width="0" stroke="none" /><g partID='122610' id='partLabel'><g transform='translate(162.8,0)' ><g font-size='5' font-style='normal' font-weight='normal' fill='#000000' font-family="'DroidSans'" id='schematicLabel' fill-opacity='1' stroke='none' ><text x='0' y='3.75'>U2</text></g></g></g><g partID='122400' id='partLabel'><g transform='translate(47.6,0)' ><g font-size='5' font-style='normal' font-weight='normal' fill='#000000' font-family="'DroidSans'" id='schematicLabel' fill-opacity='1' stroke='none' ><text x='0' y='3.75'>U1</text></g></g></g><g partID='111760' id='partLabel'><g transform='translate(126.85,25.56)' ><g font-size='5' font-style='normal' font-weight='normal' fill='#000000' font-family="'DroidSans'" id='schematicLabel' fill-opacity='1' stroke='none' ><text x='0' y='3.75'>NANO1</text></g></g></g><g partID='112390' id='partLabel'><g transform='translate(198.8,74.4638)' ><g font-size='5' font-style='normal' font-weight='normal' fill='#000000' font-family="'DroidSans'" id='schematicLabel' fill-opacity='1' stroke='none' ><text x='0' y='3.75'>R1</text><text x='0' y='8.75'>2.7k&#x3a9;</text></g></g></g><g partID='112420' id='partLabel'><g transform='translate(196.8,102.464)' ><g font-size='5' font-style='normal' font-weight='normal' fill='#000000' font-family="'DroidSans'" id='schematicLabel' fill-opacity='1' stroke='none' ><text x='0' y='3.75'>R2</text><text x='0' y='8.75'>2.7k&#x3a9;</text></g></g></g><g partID='113660' id='partLabel'><g transform='translate(257.83,83.744)' ><g font-size='5' font-style='normal' font-weight='normal' fill='#000000' font-family="'DroidSans'" id='schematicLabel' fill-opacity='1' stroke='none' ><text x='0' y='3.75'>LED1</text><text x='0' y='8.75'>Red (633nm)</text></g></g></g><g partID='113760' id='partLabel'><g transform='translate(214.63,127.344)' ><g font-size='5' font-style='normal' font-weight='normal' fill='#000000' font-family="'DroidSans'" id='schematicLabel' fill-opacity='1' stroke='none' ><text x='0' y='3.75'>LED2</text><text x='0' y='8.75'>Red (633nm)</text></g></g></g><g partID='117690' id='partLabel'><g transform='translate(17.7,67.972)' ><g font-size='5' font-style='normal' font-weight='normal' fill='#000000' font-family="'DroidSans'" id='schematicLabel' fill-opacity='1' stroke='none' ><text x='0' y='3.75'>Power</text><text x='0' y='8.75'>5V</text></g></g></g><g partID='118140' id='partLabel'><g transform='translate(230.981,11.1592)' ><g font-size='5' font-style='normal' font-weight='normal' fill='#000000' font-family="'DroidSans'" id='schematicLabel' fill-opacity='1' stroke='none' ><text x='0' y='3.75'>EYES1</text></g></g></g></svg>